HIERARCHY
ROOT root
{
	OFFSET 0.000000 0.000000 0.000000
	CHANNELS 6 Xposition Yposition Zposition Zrotation Yrotation Xrotation
	JOINT lhip
	{
		OFFSET 0.058581 -0.082280 -0.017664
		CHANNELS 3 Zrotation Yrotation Xrotation
		JOINT lknee
		{
			OFFSET 0.043451 -0.386469 0.008037
			CHANNELS 3 Zrotation Yrotation Xrotation
			JOINT lankle
			{
				OFFSET -0.014790 -0.426874 -0.037428
				CHANNELS 3 Zrotation Yrotation Xrotation
				JOINT ltoe
				{
					OFFSET 0.041054 -0.060286 0.122042
					CHANNELS 3 Zrotation Yrotation Xrotation
					End Site
					{
						OFFSET 0.000000 0.000000 0.000000
					}
				}
			}
		}
	}
	JOINT rhip
	{
		OFFSET -0.060310 -0.090513 -0.013543
		CHANNELS 3 Zrotation Yrotation Xrotation
		JOINT rknee
		{
			OFFSET -0.043257 -0.383688 -0.004843
			CHANNELS 3 Zrotation Yrotation Xrotation
			JOINT rankle
			{
				OFFSET 0.019056 -0.420046 -0.034562
				CHANNELS 3 Zrotation Yrotation Xrotation
				JOINT rtoe
				{
					OFFSET -0.034840 -0.062106 0.130323
					CHANNELS 3 Zrotation Yrotation Xrotation
					End Site
					{
						OFFSET 0.000000 0.000000 0.000000
					}
				}
			}
		}
	}
	JOINT lowerback
	{
		OFFSET 0.004439 0.124404 -0.038385
		CHANNELS 3 Zrotation Yrotation Xrotation
		JOINT upperback
		{
			OFFSET 0.004488 0.137956 0.026820
			CHANNELS 3 Zrotation Yrotation Xrotation
			JOINT chest
			{
				OFFSET -0.002265 0.056032 0.002855
				CHANNELS 3 Zrotation Yrotation Xrotation
				JOINT lowerneck
				{
					OFFSET -0.013390 0.211636 -0.033468
					CHANNELS 3 Zrotation Yrotation Xrotation
					JOINT upperneck
					{
						OFFSET 0.010113 0.088937 0.050410
						CHANNELS 3 Zrotation Yrotation Xrotation
						End Site
						{
							OFFSET 0.000000 0.000000 0.000000
						}
					}
				}
				JOINT lclavicle
				{
					OFFSET 0.071702 0.114000 -0.018898
					CHANNELS 3 Zrotation Yrotation Xrotation
					JOINT lshoulder
					{
						OFFSET 0.122921 0.045205 -0.019046
						CHANNELS 3 Zrotation Yrotation Xrotation
						JOINT lelbow
						{
							OFFSET 0.255332 -0.015649 -0.022946
							CHANNELS 3 Zrotation Yrotation Xrotation
							JOINT lwrist
							{
								OFFSET 0.265709 0.012698 -0.007375
								CHANNELS 3 Zrotation Yrotation Xrotation
								End Site
								{
									OFFSET 0.000000 0.000000 0.000000
								}
							}
						}
					}
				}
				JOINT rclavicle
				{
					OFFSET -0.082954 0.112472 -0.023707
					CHANNELS 3 Zrotation Yrotation Xrotation
					JOINT rshoulder
					{
						OFFSET -0.113228 0.046853 -0.008472
						CHANNELS 3 Zrotation Yrotation Xrotation
						JOINT relbow
						{
							OFFSET -0.260127 -0.014369 -0.031269
							CHANNELS 3 Zrotation Yrotation Xrotation
							JOINT rwrist
							{
								OFFSET -0.269108 0.006794 -0.006027
								CHANNELS 3 Zrotation Yrotation Xrotation
								End Site
								{
									OFFSET 0.000000 0.000000 0.000000
								}
							}
						}
					}
				}
			}
		}
	}
}
MOTION
Frames: 5
Frame Time: 0.033333
0.496243 0.195193 0.987745 90.277862 4.193770 95.691446 8.666084 5.299272 -4.386357 3.267837 -0.662569 -5.455520 -1.724414 10.142416 -3.106687 0.000000 -0.000000 0.000000 -2.834878 -2.790022 -7.594275 -1.217541 1.211984 2.095419 6.558993 -6.289592 -3.098960 0.000000 -0.000000 0.000000 -0.412048 1.293999 -1.594041 4.428399 -3.241061 2.518999 0.752162 0.877304 -6.641342 0.131133 -10.409371 4.421544 3.105299 -13.498429 -3.610940 -23.706454 1.301344 -2.705900 -60.654161 -4.212675 27.012858 4.576748 -19.231227 19.076632 -13.488080 -5.998602 17.991332 24.851208 3.027304 -0.622932 52.844729 5.089076 15.414255 -7.117747 11.490291 0.301318 7.452412 2.788343 3.281600 
0.496325 0.195208 0.987716 90.256798 4.189544 95.660236 8.645259 5.271501 -4.342045 3.300641 -0.643880 -5.463900 -1.741015 10.198260 -3.117549 0.000000 -0.000000 0.000000 -2.838228 -2.864639 -7.574426 -1.210467 1.275635 2.117320 6.600836 -6.263138 -3.094060 0.000000 -0.000000 0.000000 -0.345371 1.314071 -1.303831 4.363337 -3.191467 2.044673 0.745299 0.840529 -6.439678 0.133944 -10.563417 4.375904 3.095242 -13.445361 -3.392733 -23.754525 1.228947 -2.677177 -60.499378 -4.302597 26.852986 4.000748 -18.963779 18.788520 -12.512398 -6.836586 16.923240 24.861100 3.028500 -0.666985 52.812489 5.034261 15.482088 -6.936273 11.496553 0.320287 6.879566 3.000621 3.055226 
0.496642 0.195026 0.987567 90.310077 4.199914 95.741973 8.652889 5.230452 -4.433023 3.318134 -0.642984 -5.477329 -1.817004 10.200274 -3.112990 0.000000 -0.000000 0.000000 -2.780732 -2.893354 -7.608097 -1.241697 1.269895 2.026426 6.515394 -6.191970 -3.156275 0.000000 -0.000000 0.000000 -0.383560 1.274597 -1.359237 4.399858 -3.218513 1.897785 0.784189 0.802407 -6.310674 0.115967 -10.549837 4.523633 3.146937 -13.338879 -3.500755 -23.722518 1.195361 -2.735183 -60.459547 -4.441117 26.834994 3.291665 -18.531784 18.397525 -11.305564 -7.978036 15.685067 24.812349 3.086418 -0.718833 52.701260 5.161569 15.624136 -6.546974 11.251958 0.245661 6.432672 3.284714 2.563817 
0.497850 0.194510 0.987218 90.544076 4.193067 96.068797 8.668374 5.178597 -4.755614 3.283840 -0.779863 -5.542052 -1.977863 10.135556 -3.112049 0.000000 -0.000000 0.000000 -2.588838 -2.893801 -7.658298 -1.393494 1.320830 1.576732 6.165992 -6.228949 -3.372207 0.000000 -0.000000 0.000000 -0.361694 1.287030 -1.580678 4.406393 -3.266263 1.852364 0.711174 0.682355 -6.653390 0.083035 -10.717441 4.765697 3.036030 -13.366161 -3.336735 -23.531905 1.131874 -2.711786 -60.512891 -4.535595 27.150304 2.588745 -17.942326 18.090058 -9.727062 -8.991250 14.397160 24.877851 2.831794 -0.904614 52.533226 5.208944 15.823975 -5.926833 10.882748 0.073847 6.077302 3.433906 1.599367 
0.498083 0.194481 0.987241 90.540215 4.184787 96.063831 8.633826 5.188479 -4.734805 3.320035 -0.828958 -5.539872 -1.946960 10.148659 -3.151121 0.000000 -0.000000 0.000000 -2.571211 -2.893989 -7.644770 -1.425048 1.379469 1.570532 6.149108 -6.271540 -3.389201 0.000000 -0.000000 0.000000 -0.225476 1.371983 -1.396377 4.348745 -3.227259 1.762148 0.589846 0.752852 -6.798932 0.022332 -10.814576 4.807533 3.003203 -13.364176 -3.293569 -23.527748 0.960331 -2.663394 -60.439305 -4.515600 27.201126 2.564980 -17.953251 18.098460 -9.740724 -8.869413 14.464253 24.911097 2.677590 -1.050816 52.591018 4.982944 15.749790 -5.969063 11.030694 0.062383 6.076842 3.396203 1.651315 
